<?xml version="1.0" encoding="UTF-8"?>
<svg width="20px" height="22px" viewBox="0 0 20 22" version="1.1" xmlns="http://www.w3.org/2000/svg" xmlns:xlink="http://www.w3.org/1999/xlink">
    <!-- Generator: Sketch 44.1 (41455) - http://www.bohemiancoding.com/sketch -->
    <title>icon</title>
    <desc>Created with Sketch.</desc>
    <defs></defs>
    <g id="Page-1" stroke="none" stroke-width="1" fill="none" fill-rule="evenodd">
        <g id="业务查询" transform="translate(-31.000000, -713.000000)" fill-rule="nonzero" fill="#FF5000">
            <g id="套餐资费" transform="translate(0.000000, 594.000000)">
                <g id="套餐选项" transform="translate(0.000000, 40.000000)">
                    <g id="icon" transform="translate(30.000000, 79.000000)">
                        <path d="M10.7205363,11.962597 C10.7204827,12.2436716 10.8704034,12.5034182 11.1138122,12.643971 C11.357221,12.7845238 11.6571285,12.7845238 11.9005373,12.643971 C12.1439461,12.5034182 12.2938668,12.2436716 12.2938132,11.962597 C12.2938668,11.6815224 12.1439461,11.4217758 11.9005373,11.2812231 C11.6571285,11.1406703 11.357221,11.1406703 11.1138122,11.2812231 C10.8704034,11.4217758 10.7204827,11.6815224 10.7205363,11.962597 L10.7205363,11.962597 Z" id="Shape"></path>
                        <path d="M7.9673018,11.962597 C7.9673018,12.3970454 8.31949183,12.7492355 8.75394025,12.7492355 C9.18838867,12.7492355 9.5405787,12.3970454 9.5405787,11.962597 C9.54057871,11.6815582 9.39064627,11.4218676 9.14725948,11.2813481 C8.9038727,11.1408287 8.6040078,11.1408287 8.36062102,11.2813481 C8.11723423,11.4218676 7.96730179,11.6815582 7.9673018,11.962597 L7.9673018,11.962597 Z" id="Shape"></path>
                        <path d="M5.21406729,11.962597 C5.21401365,12.2436716 5.36393436,12.5034182 5.60734316,12.643971 C5.85075197,12.7845238 6.15065947,12.7845238 6.39406828,12.643971 C6.63747708,12.5034182 6.78739779,12.2436716 6.78734415,11.962597 C6.78739779,11.6815224 6.63747708,11.4217758 6.39406828,11.2812231 C6.15065947,11.1406703 5.85075197,11.1406703 5.60734316,11.2812231 C5.36393436,11.4217758 5.21401365,11.6815224 5.21406729,11.962597 Z" id="Shape"></path>
                        <path d="M19.4356622,0.100917437 L2.85415195,0.100917437 C2.12961656,0.100917437 1.54998823,0.680545766 1.54998823,1.40508116 L1.54998823,20.6363209 C1.54998823,21.3608563 2.12961656,21.9404846 2.85415195,21.9404846 L19.4356622,21.9404846 C20.1601976,21.9404846 20.7398259,21.3608563 20.7398259,20.6363209 L20.7398259,1.42578216 C20.7605269,0.701246763 20.1601976,0.100917409 19.4356622,0.100917437 Z M19.3114561,20.5121148 L2.99905905,20.5121148 L2.99905905,1.54998823 L19.3114561,1.54998823 L19.3114561,20.5121148 Z" id="Shape"></path>
                        <path d="M5.89720066,4.96565515 L16.4133145,4.96565515 C16.8066337,4.96565515 17.1378499,4.63443896 17.1378499,4.24111972 C17.13785,3.84780049 16.8066337,3.51658433 16.4133145,3.51658433 L5.89720066,3.51658433 C5.50388145,3.51658433 5.17266527,3.84780052 5.17266527,4.24111972 C5.17266527,4.63443893 5.48318043,4.96565512 5.89720066,4.96565515 Z" id="Shape"></path>
                        <path d="M5.89720066,8.89884732 L16.4133145,8.89884732 C16.8066337,8.89884732 17.1378499,8.56763113 17.1378499,8.17431192 C17.13785,7.78099271 16.8066337,7.44977653 16.4133145,7.44977653 L5.89720066,7.44977653 C5.50388145,7.44977653 5.17266527,7.78099271 5.17266527,8.17431192 C5.17266527,8.56763113 5.48318043,8.89884732 5.89720066,8.89884732 Z" id="Shape"></path>
                    </g>
                </g>
            </g>
        </g>
    </g>
</svg>