<?xml version="1.0" encoding="UTF-8"?>
<svg width="32px" height="31px" viewBox="0 0 32 31" version="1.1" xmlns="http://www.w3.org/2000/svg" xmlns:xlink="http://www.w3.org/1999/xlink">
    <!-- Generator: Sketch 45.1 (43504) - http://www.bohemiancoding.com/sketch -->
    <title>声音</title>
    <desc>Created with Sketch.</desc>
    <defs></defs>
    <g id="Page-1" stroke="none" stroke-width="1" fill="none" fill-rule="evenodd">
        <g id="业务查询2-有多种" transform="translate(-22.000000, -144.000000)" fill-rule="nonzero" fill="#FF7500">
            <g id="公告_带图标和链接" transform="translate(0.000000, 123.000000)">
                <g id="声音" transform="translate(21.000000, 19.000000)">
                    <path d="M22.059381,2.45256579 C21.7303156,2.28803307 21.373828,2.31545521 21.0721847,2.50741003 L8.04667808,11.4195987 L7.33370301,11.9131969 L2.9187418,11.9131969 C2.39772155,11.9131969 1.95896764,12.3519508 1.95896764,12.8729711 L1.95896764,22.7175118 C1.95896764,23.2385321 2.39772155,23.677286 2.9187418,23.677286 L7.6353463,23.677286 C8.15636655,23.677286 8.59512046,23.2385321 8.59512046,22.7175118 C8.59512046,22.1964915 8.15636655,21.7577377 7.6353463,21.7577377 L3.87851596,21.7577377 L3.87851596,13.8053231 L7.6353463,13.8053231 C7.82730112,13.8053231 8.01925598,13.7504789 8.18378869,13.6407904 L20.6334308,5.11251135 L20.6334308,31.1086803 C20.6334308,31.6297005 21.0721847,32.0684545 21.593205,32.0684545 C22.1142252,32.0684545 22.5529791,31.6297006 22.5529791,31.1086803 L22.5529791,3.30265147 C22.5529791,2.94616394 22.3610243,2.61709851 22.059381,2.45256579 L22.059381,2.45256579 Z" id="Shape"></path>
                    <path d="M27.6534933,17.2605101 C27.6534933,15.7522936 26.6388749,14.3811876 25.1855026,13.9698558 C24.6644823,13.8053231 24.143462,14.1069664 23.9789293,14.6279867 C23.8143966,15.1490069 24.1160399,15.6700272 24.6370602,15.83456 C25.2677689,16.0265148 25.733945,16.6298014 25.733945,17.2879323 C25.733945,17.9460631 25.2951911,18.5493498 24.6370602,18.7413046 C24.1160399,18.8784152 23.8418187,19.4268575 23.9789293,19.9478778 C24.1160399,20.3592096 24.4725275,20.6334308 24.9112814,20.6334308 C24.9935477,20.6334308 25.1032362,20.6334308 25.1855026,20.6060087 C26.6388749,20.1124105 27.6534933,18.7687267 27.6534933,17.2605101 Z" id="Shape"></path>
                    <path d="M27.0227846,9.52747252 C26.5291864,9.33551771 25.980744,9.60973886 25.7887892,10.103337 C25.5968344,10.5969352 25.8710555,11.1453776 26.3646537,11.3373324 C28.8326444,12.2422623 30.5053937,14.6005646 30.5053937,17.233088 C30.5053937,19.8656115 28.8326444,22.2239137 26.3646537,23.1288436 C25.8710555,23.3207985 25.5968344,23.8692408 25.7887892,24.362839 C25.9258998,24.7467487 26.3098095,24.9935477 26.6937191,24.9935477 C26.8034076,24.9935477 26.9130961,24.9661256 27.0227846,24.9387035 C30.2585946,23.7595524 32.424942,20.6608529 32.424942,17.233088 C32.424942,13.8053231 30.2585946,10.7066237 27.0227846,9.52747252 L27.0227846,9.52747252 Z" id="Shape"></path>
                    <path d="M10.0759149,25.0758141 C10.0758439,25.4481467 10.2744401,25.7922266 10.5968778,25.9784134 C10.9193154,26.1646002 11.3165955,26.1646002 11.6390331,25.9784134 C11.9614707,25.7922266 12.160067,25.4481467 12.159996,25.0758141 C12.160067,24.7034815 11.9614707,24.3594016 11.6390331,24.1732148 C11.3165955,23.987028 10.9193154,23.987028 10.5968778,24.1732148 C10.2744401,24.3594016 10.0758439,24.7034815 10.0759149,25.0758141 Z" id="Shape"></path>
                    <path d="M13.2568807,26.9130961 C13.2568807,27.2853813 13.4554925,27.6293871 13.777901,27.8155297 C14.1003095,28.0016723 14.4975331,28.0016723 14.8199415,27.8155297 C15.14235,27.6293871 15.3409618,27.2853813 15.3409618,26.9130961 C15.3409618,26.337593 14.8744244,25.8710555 14.2989213,25.8710555 C13.7234182,25.8710555 13.2568807,26.337593 13.2568807,26.9130961 L13.2568807,26.9130961 Z" id="Shape"></path>
                    <path d="M16.4104244,28.7229559 C16.4103534,29.0952885 16.6089497,29.4393684 16.9313873,29.6255552 C17.2538249,29.811742 17.651105,29.811742 17.9735426,29.6255552 C18.2959803,29.4393684 18.4945765,29.0952885 18.4945055,28.7229559 C18.4945765,28.3506233 18.2959803,28.0065434 17.9735426,27.8203566 C17.651105,27.6341698 17.2538249,27.6341698 16.9313873,27.8203566 C16.6089497,28.0065434 16.4103534,28.3506233 16.4104244,28.7229559 Z" id="Shape"></path>
                </g>
            </g>
        </g>
    </g>
</svg>