<?xml version="1.0" encoding="UTF-8"?>
<svg width="30px" height="34px" viewBox="0 0 30 34" version="1.1" xmlns="http://www.w3.org/2000/svg" xmlns:xlink="http://www.w3.org/1999/xlink">
    <!-- Generator: Sketch 44.1 (41455) - http://www.bohemiancoding.com/sketch -->
    <title>安全</title>
    <desc>Created with Sketch.</desc>
    <defs></defs>
    <g id="Page-1" stroke="none" stroke-width="1" fill="none" fill-rule="evenodd">
        <g id="业务办理" transform="translate(-21.000000, -144.000000)" fill-rule="nonzero" fill="#FF7500">
            <g id="公告_带图标和链接" transform="translate(0.000000, 124.000000)">
                <g id="安全" transform="translate(21.000000, 20.000000)">
                    <path d="M26.9525154,19.7833451 C26.4589172,19.5913903 25.9104748,19.8381894 25.71852,20.3317875 C24.2925698,24.0886178 22.043956,27.0776288 19.0275229,29.2165541 C17.1628188,30.5328158 15.599758,31.1086803 15.0787378,31.273213 C14.3109184,31.026414 11.3219074,29.9295292 8.44258493,26.9130961 C4.19215648,22.3610243 2.21776388,15.5329166 2.73878417,7.11432605 C9.37493699,6.56588367 13.4608328,4.12531506 14.9416272,3.05585242 C16.504688,4.15273719 20.9196492,6.78526062 27.9945559,7.16917029 C28.5155762,7.19659239 28.9817522,6.78526062 29.0091743,6.26424033 C29.0365964,5.74322008 28.6252646,5.27704403 28.1042444,5.24962193 C20.0147192,4.81086802 15.599758,1.16372616 15.5723359,1.13630406 C15.2158484,0.834660763 14.667406,0.834660763 14.3109184,1.13630406 C14.2560742,1.16372616 9.97822362,4.81086802 1.77900997,5.24962193 C1.28541182,5.27704403 0.901502145,5.66095371 0.874080045,6.12712975 C-0.0582720156,17.9734852 3.72598043,24.6644823 7.04405686,28.2019357 C10.7186208,32.0958766 14.5851396,33.110495 14.7496724,33.1653392 C14.8319387,33.1927613 14.9142051,33.1927613 14.9690493,33.1927614 L15.0787378,33.1927614 C15.1610041,33.1927614 15.2432705,33.1927614 15.3255368,33.1653392 C15.6546023,33.0830729 23.7167053,30.9441476 27.4735357,21.0173405 C27.6929126,20.5237423 27.4461136,19.9752999 26.9525154,19.7833451 Z" id="Shape"></path>
                    <path d="M27.3090029,13.5036798 C27.3089319,13.8760124 27.5075281,14.2200923 27.8299658,14.4062791 C28.1524034,14.5924659 28.5496835,14.5924659 28.8721211,14.4062791 C29.1945588,14.2200923 29.393155,13.8760124 29.393084,13.5036798 C29.393155,13.1313472 29.1945588,12.7872673 28.8721211,12.6010805 C28.5496835,12.4148937 28.1524034,12.4148937 27.8299658,12.6010805 C27.5075281,12.7872673 27.3089319,13.1313472 27.3090029,13.5036798 Z" id="Shape"></path>
                    <path d="M26.7331384,17.1782438 C26.7331384,17.550529 26.9317502,17.8945348 27.2541587,18.0806774 C27.5765671,18.26682 27.9737908,18.26682 28.2961992,18.0806774 C28.6186077,17.8945348 28.8172195,17.550529 28.8172195,17.1782438 C28.8172195,16.8059585 28.6186077,16.4619528 28.2961992,16.2758102 C27.9737908,16.0896675 27.5765671,16.0896675 27.2541587,16.2758102 C26.9317502,16.4619528 26.7331384,16.8059585 26.7331384,17.1782438 L26.7331384,17.1782438 Z" id="Shape"></path>
                    <path d="M27.3638472,9.74684948 C27.3637761,10.1191821 27.5623724,10.463262 27.88481,10.6494488 C28.2072477,10.8356356 28.6045277,10.8356356 28.9269654,10.6494488 C29.249403,10.463262 29.4479993,10.1191821 29.4479282,9.74684948 C29.4479993,9.3745169 29.249403,9.030437 28.9269654,8.84425019 C28.6045277,8.65806339 28.2072477,8.65806339 27.88481,8.84425019 C27.5623724,9.030437 27.3637761,9.3745169 27.3638472,9.74684948 L27.3638472,9.74684948 Z" id="Shape"></path>
                </g>
            </g>
        </g>
    </g>
</svg>