<?xml version="1.0" encoding="UTF-8"?>
<svg width="30px" height="30px" viewBox="0 0 30 30" version="1.1" xmlns="http://www.w3.org/2000/svg" xmlns:xlink="http://www.w3.org/1999/xlink">
    <!-- Generator: Sketch 44.1 (41455) - http://www.bohemiancoding.com/sketch -->
    <title>Group</title>
    <desc>Created with Sketch.</desc>
    <defs></defs>
    <g id="Page-1" stroke="none" stroke-width="1" fill="none" fill-rule="evenodd">
        <g id="业务办理" transform="translate(-29.000000, -779.000000)">
            <g id="合约协议" transform="translate(30.000000, 777.000000)">
                <g id="Group" transform="translate(0.000000, 3.000000)">
                    <circle id="Oval" stroke="#00AAEE" stroke-width="1.5" cx="14" cy="14" r="14"></circle>
                    <path d="M11.0348068,20.423083 C11.013766,20.4020422 11.013766,20.3810014 10.9927252,20.3810014 L5.87980824,14.089799 C5.64835934,13.8162685 5.69044096,13.3954523 5.98501228,13.1640034 C6.25854281,12.9325545 6.67935902,12.9746361 6.91080795,13.2692074 L11.9816433,19.5183282 C12.0237249,19.5604098 12.0658065,19.5604098 12.128929,19.4972873 L23.3226402,8.70463128 C23.5751299,8.43110075 23.9959461,8.43110075 24.2484358,8.68359045 C24.5219663,8.93608018 24.5219663,9.3568964 24.2694766,9.60938613 L13.0547246,20.423083 C12.7811941,20.6966135 12.4235003,20.8438992 12.0447657,20.8438992 C11.6660311,20.8438992 11.3083374,20.6966136 11.0348068,20.423083 Z" id="Shape" fill="#00AAEE" fill-rule="nonzero"></path>
                </g>
            </g>
        </g>
    </g>
</svg>